<?xml version="1.0" encoding="UTF-8"?><svg id="Camada_2" xmlns="http://www.w3.org/2000/svg" viewBox="0 0 847.94 848.01"><g id="logo"><path d="M369.48,562.16c10.16,0,18.94-5.86,23.18-14.38,1.74-3.48,2.74-7.39,2.74-11.55,0-14.32-11.61-25.92-25.92-25.92-4.16,0-8.07,1-11.55,2.74-8.51,4.25-14.37,13.02-14.37,23.18,0,14.32,11.61,25.92,25.92,25.92Z" style="fill:#f6921e;"/><path d="M385.4,439.56l-40.38,40.38c7.5-3.26,15.76-5.1,24.46-5.1,7.91,0,15.45,1.55,22.39,4.27l16.54-16.54,57.88-57.88,31.23-31.23c-7.5,3.26-15.76,5.1-24.46,5.1-7.91,0-15.45-1.55-22.39-4.27l-7.39,7.39-57.88,57.88Z" style="fill:#f6921e;"/><path d="M473.06,343.08c4.16,0,8.07-1,11.55-2.74,8.51-4.25,14.37-13.02,14.37-23.18,0-14.32-11.61-25.92-25.92-25.92-10.16,0-18.94,5.86-23.18,14.38-1.74,3.48-2.74,7.39-2.74,11.55,0,14.32,11.61,25.92,25.92,25.92Z" style="fill:#3b73e2;"/><path d="M779.33,192.29c-15.76-24.16-34.22-47.06-55.41-68.25C568.93-30.94,322.86-40.69,156.4,94.79c-11.18,9.1-22,18.85-32.41,29.26-9.12,9.12-17.7,18.57-25.82,28.28l58.2,58.2,41.17,41.17c-37.79,48.24-60.38,108.96-60.38,174.99,0,54.76,15.53,105.88,42.37,149.26l171.13-171.13,57.89-57.88,7.39-7.39c-2.73-6.94-4.27-14.48-4.27-22.39,0-33.91,27.49-61.4,61.4-61.4,33.91,0,61.4,27.49,61.4,61.4,0,8.7-1.83,16.96-5.1,24.46l103.95-103.95,33.93-33.93h-70.07c-48.38-38.24-109.44-61.16-175.9-61.16-61.34,0-118.09,19.5-164.52,52.55l-42.01-42.01c134.17-103.76,336.94-102.91,459.97,20.12,148.25,128.78,124.51,448.59,124.51,448.59,71.02-134.92,64.39-300.34-19.9-429.55Z" style="fill:#3b73e2;"/><path d="M652.83,591.21c33.05-46.43,52.55-103.18,52.55-164.52,0-54.76-15.53-105.88-42.37-149.26l-161.98,161.98-57.89,57.88-16.54,16.54c2.73,6.95,4.27,14.48,4.27,22.39,0,33.91-27.49,61.4-61.4,61.4-33.91,0-61.4-27.49-61.4-61.4,0-8.7,1.83-16.96,5.1-24.46l-103.95,103.95-31.62,31.62h64.8c48.83,39.65,111.05,63.47,178.86,63.47,66.03,0,126.75-22.59,174.99-60.38l41.17,41.17c-134.29,107.3-339.91,107.52-464.24-16.82C22.51,541,51.34,221.27,51.34,221.27-31.78,374.19-13.96,567.75,104.7,703.25c6.18,7.06,12.56,14,19.28,20.73,156.28,156.28,405.16,164.87,571.65,25.82,9.71-8.11,19.16-16.7,28.28-25.82,10.41-10.41,20.16-21.23,29.26-32.41l-58.34-58.34-42.01-42.01Z" style="fill:#f6921e;"/></g></svg>